<svg xmlns="http://www.w3.org/2000/svg" width="32" height="32" viewBox="0 0 24 24"><g fill="none" fill-rule="evenodd"><path d="M24 0v24H0V0zM12.593 23.258l-.011.002l-.071.035l-.02.004l-.014-.004l-.071-.035q-.016-.005-.024.005l-.004.01l-.017.428l.005.02l.01.013l.104.074l.015.004l.012-.004l.104-.074l.012-.016l.004-.017l-.017-.427q-.004-.016-.017-.018m.265-.113l-.013.002l-.185.093l-.01.01l-.003.011l.018.43l.005.012l.008.007l.201.093q.019.005.029-.008l.004-.014l-.034-.614q-.005-.019-.02-.022m-.715.002a.02.02 0 0 0-.027.006l-.006.014l-.034.614q.001.018.017.024l.015-.002l.201-.093l.01-.008l.004-.011l.017-.43l-.003-.012l-.01-.01z"/><path fill="currentColor" d="M16 14a5 5 0 0 1 4.995 4.783L21 19v2a1 1 0 0 1-1.993.117L19 21v-2a3 3 0 0 0-2.824-2.995L16 16H8a3 3 0 0 0-2.995 2.824L5 19v2a1 1 0 0 1-1.993.117L3 21v-2a5 5 0 0 1 4.783-4.995L8 14zM12 2a5 5 0 1 1 0 10a5 5 0 0 1 0-10m0 2a3 3 0 1 0 0 6a3 3 0 0 0 0-6"/></g></svg>