<svg xmlns="http://www.w3.org/2000/svg" width="32" height="32" viewBox="0 0 24 24"><g fill="none" fill-rule="evenodd"><path d="M24 0v24H0V0zM12.593 23.258l-.011.002l-.071.035l-.02.004l-.014-.004l-.071-.035q-.016-.005-.024.005l-.004.01l-.017.428l.005.02l.01.013l.104.074l.015.004l.012-.004l.104-.074l.012-.016l.004-.017l-.017-.427q-.004-.016-.017-.018m.265-.113l-.013.002l-.185.093l-.01.01l-.003.011l.018.43l.005.012l.008.007l.201.093q.019.005.029-.008l.004-.014l-.034-.614q-.005-.019-.02-.022m-.715.002a.02.02 0 0 0-.027.006l-.006.014l-.034.614q.001.018.017.024l.015-.002l.201-.093l.01-.008l.004-.011l.017-.43l-.003-.012l-.01-.01z"/><path fill="currentColor" d="M10.75 2.567a2.5 2.5 0 0 1 2.332-.089l.168.089L19.544 6.2a2.5 2.5 0 0 1 1.244 1.987l.006.178v7.268a2.5 2.5 0 0 1-1.099 2.07l-.15.095l-6.295 3.634a2.5 2.5 0 0 1-2.332.089l-.168-.09L4.456 17.8a2.5 2.5 0 0 1-1.244-1.987l-.006-.178V8.366a2.5 2.5 0 0 1 1.1-2.07l.15-.095zm1.5 1.732a.5.5 0 0 0-.42-.037l-.08.037l-6.294 3.634a.5.5 0 0 0-.242.345l-.008.088v7.268a.5.5 0 0 0 .178.382l.072.05l6.294 3.635a.5.5 0 0 0 .42.037l.08-.037l6.294-3.634a.5.5 0 0 0 .243-.345l.007-.088V8.366a.5.5 0 0 0-.177-.382l-.073-.051zM12 8a4 4 0 1 1 0 8a4 4 0 0 1 0-8m0 2a2 2 0 1 0 0 4a2 2 0 0 0 0-4"/></g></svg>